700 0 1 0           
11 SatConsumer 19 ASM 219.0.0.4610 NT 24 Sun Dec 18 16:53:28 2016 
10 9.9999999999999995e-007 1e-010 
body $1 -1 $-1 $2 $-1 $3 #
rgb_color-st-attrib $-1 -1 $-1 $-1 $0 0.32156862745098042 0.70196078431372544 0.93725490196078431 #
lump $-1 -1 $-1 $-1 $4 $0 #
transform $-1 -1 1 0 0 0 1 0 0 0 1 0 0 0 1 no_rotate no_reflect no_shear #
shell $-1 -1 $-1 $-1 $-1 $5 $-1 $2 #
face $-1 -1 $-1 $6 $7 $4 $-1 $8 reversed single #
face $-1 -1 $-1 $9 $10 $4 $-1 $8 reversed single #
loop $-1 -1 $-1 $11 $12 $5 #
cone-surface $-1 -1 $-1 -3.1299999999999999 4.6200003623962402 0.39999999999999991 0 -1 0 0.16500000000000006 0 0 1 I I 0 1 0.16500000000000006 forward I I I I #
face $-1 -1 $-1 $13 $14 $4 $-1 $15 reversed single #
loop $-1 -1 $-1 $16 $17 $6 #
loop $-1 -1 $-1 $-1 $18 $5 #
coedge $-1 -1 $-1 $12 $12 $19 $20 reversed $7 $-1 #
face $-1 -1 $-1 $21 $22 $4 $-1 $15 reversed single #
loop $-1 -1 $-1 $23 $24 $9 #
cone-surface $-1 -1 $-1 -3.1299999999999999 4.619999885559082 1.9000000000000001 0 -1 0 -0.16500000000000004 0 0 1 I I 0 1 0.16500000000000004 forward I I I I #
loop $-1 -1 $-1 $-1 $25 $6 #
coedge $-1 -1 $-1 $17 $17 $26 $27 reversed $10 $-1 #
coedge $-1 -1 $-1 $18 $18 $28 $29 reversed $11 $-1 #
coedge $-1 -1 $-1 $19 $19 $12 $20 forward $30 $-1 #
edge $-1 -1 $-1 $31 -3.1415926535897931 $31 3.1415926535897931 $19 $32 forward @7 unknown #
face $-1 -1 $-1 $33 $34 $4 $-1 $15 reversed single #
loop $-1 -1 $-1 $35 $36 $13 #
loop $-1 -1 $-1 $-1 $37 $9 #
coedge $-1 -1 $-1 $24 $24 $38 $39 reversed $14 $-1 #
coedge $-1 -1 $-1 $25 $25 $40 $41 reversed $16 $-1 #
coedge $-1 -1 $-1 $26 $26 $17 $27 forward $42 $-1 #
edge $-1 -1 $-1 $43 -3.1415926535897931 $43 3.1415926535897931 $26 $44 forward @7 unknown #
coedge $-1 -1 $-1 $28 $28 $18 $29 forward $45 $-1 #
edge $-1 -1 $-1 $46 -3.1415926535897931 $46 3.1415926535897931 $28 $47 forward @7 unknown #
loop $-1 -1 $-1 $48 $19 $49 #
vertex $-1 -1 $-1 $20 $50 #
ellipse-curve $-1 -1 $-1 -3.1299999999999999 1.0999999999999996 0.39999999999999991 -0 1 -0 0.16500000000000006 0 0 1 I I #
face $-1 -1 $-1 $51 $52 $4 $-1 $53 reversed single #
loop $-1 -1 $-1 $54 $55 $21 #
loop $-1 -1 $-1 $-1 $56 $13 #
coedge $-1 -1 $-1 $36 $36 $57 $58 reversed $22 $-1 #
coedge $-1 -1 $-1 $37 $37 $59 $60 reversed $23 $-1 #
coedge $-1 -1 $-1 $38 $38 $24 $39 forward $61 $-1 #
edge $-1 -1 $-1 $62 -3.1415926535897931 $62 3.1415926535897931 $38 $63 forward @7 unknown #
coedge $-1 -1 $-1 $40 $40 $25 $41 forward $64 $-1 #
edge $-1 -1 $-1 $65 -3.1415926535897931 $65 3.1415926535897931 $40 $66 forward @7 unknown #
loop $-1 -1 $-1 $67 $26 $68 #
vertex $-1 -1 $-1 $27 $69 #
ellipse-curve $-1 -1 $-1 -3.1299999999999999 4.3200000000000003 0.39999999999999991 -0 1 -0 0.16500000000000006 0 0 1 I I #
loop $-1 -1 $-1 $70 $28 $71 #
vertex $-1 -1 $-1 $29 $72 #
ellipse-curve $-1 -1 $-1 -3.1299999999999999 2.7999999999999998 0.39999999999999991 -0 -1 -0 0.16500000000000006 0 0 1 I I #
loop $-1 -1 $-1 $73 $74 $49 #
face $-1 -1 $-1 $75 $30 $4 $-1 $76 forward single #
point $-1 -1 $-1 -3.2949999999999999 1.1000003623962398 0.39999999999999991 #
face $-1 -1 $-1 $77 $78 $4 $-1 $79 reversed single #
loop $-1 -1 $-1 $-1 $80 $33 #
plane-surface $-1 -1 $-1 -2.5 1.3999999999999999 3.0000000000000004 0 -0 1 0 1 0 forward_v I I I I #
loop $-1 -1 $-1 $-1 $81 $21 #
coedge $-1 -1 $-1 $55 $55 $82 $83 reversed $34 $-1 #
coedge $-1 -1 $-1 $56 $56 $84 $85 reversed $35 $-1 #
coedge $-1 -1 $-1 $57 $57 $36 $58 forward $86 $-1 #
edge $-1 -1 $-1 $87 -3.1415926535897931 $87 3.1415926535897931 $57 $88 forward @7 unknown #
coedge $-1 -1 $-1 $59 $59 $37 $60 forward $70 $-1 #
edge $-1 -1 $-1 $89 -3.1415926535897931 $89 3.1415926535897931 $59 $90 forward @7 unknown #
loop $-1 -1 $-1 $91 $38 $92 #
vertex $-1 -1 $-1 $39 $93 #
ellipse-curve $-1 -1 $-1 -3.1299999999999999 2.5 1.9000000000000001 -0 1 -0 -0.16500000000000004 0 0 1 I I #
loop $-1 -1 $-1 $86 $40 $94 #
vertex $-1 -1 $-1 $41 $95 #
ellipse-curve $-1 -1 $-1 -3.1299999999999999 4.6200000000000001 0.39999999999999991 -0 -1 0 0.16500000000000006 0 0 1 I I #
loop $-1 -1 $-1 $96 $84 $68 #
face $-1 -1 $-1 $97 $42 $4 $-1 $98 forward single #
point $-1 -1 $-1 -3.2949999999999999 4.3200000000000003 0.39999999999999991 #
loop $-1 -1 $-1 $99 $59 $71 #
face $-1 -1 $-1 $100 $45 $4 $-1 $101 forward single #
point $-1 -1 $-1 -3.2949999999999999 2.7999999999999998 0.39999999999999991 #
loop $-1 -1 $-1 $-1 $102 $49 #
coedge $-1 -1 $-1 $74 $74 $81 $103 forward $48 $-1 #
face $-1 -1 $-1 $104 $105 $4 $-1 $106 forward single #
plane-surface $-1 -1 $-1 -3.9000000000000004 1.0999999999999999 0 0 -1 0 1 0 0 forward_v I I I I #
face $-1 -1 $-1 $107 $108 $4 $-1 $109 reversed single #
loop $-1 -1 $-1 $110 $82 $51 #
plane-surface $-1 -1 $-1 -2.5 1.3999999999999999 0.80000000000000027 0 -1 0 0 0 1 forward_v I I I I #
coedge $-1 -1 $-1 $111 $112 $113 $114 reversed $52 $-1 #
coedge $-1 -1 $-1 $81 $81 $74 $103 reversed $54 $-1 #
coedge $-1 -1 $-1 $82 $82 $55 $83 forward $78 $-1 #
edge $-1 -1 $-1 $115 -3.1415926535897931 $115 3.1415926535897931 $82 $116 forward @7 unknown #
coedge $-1 -1 $-1 $84 $84 $56 $85 forward $67 $-1 #
edge $-1 -1 $-1 $117 -3.1415926535897931 $117 3.1415926535897931 $84 $118 forward @7 unknown #
loop $-1 -1 $-1 $119 $57 $94 #
vertex $-1 -1 $-1 $58 $120 #
ellipse-curve $-1 -1 $-1 -3.1299999999999999 4.6200000000000001 1.9000000000000001 -0 -1 0 -0.16500000000000004 0 0 1 I I #
vertex $-1 -1 $-1 $60 $121 #
ellipse-curve $-1 -1 $-1 -3.1299999999999999 2.7999999999999998 1.9000000000000001 -0 -1 -0 -0.16500000000000004 0 0 1 I I #
loop $-1 -1 $-1 $-1 $122 $92 #
face $-1 -1 $-1 $123 $61 $4 $-1 $124 forward single #
point $-1 -1 $-1 -2.9649999999999999 2.5 1.9000000000000001 #
face $-1 -1 $-1 $125 $64 $4 $-1 $126 forward single #
point $-1 -1 $-1 -3.2949999999999999 4.6200003623962402 0.39999999999999991 #
loop $-1 -1 $-1 $-1 $127 $68 #
face $-1 -1 $-1 $71 $128 $4 $-1 $129 forward single #
plane-surface $-1 -1 $-1 -3.9000000000000004 4.3200000000000003 0 0 -1 0 1 0 0 forward_v I I I I #
loop $-1 -1 $-1 $-1 $130 $71 #
face $-1 -1 $-1 $49 $131 $4 $-1 $132 forward single #
plane-surface $-1 -1 $-1 -2.5 2.7999999999999998 0 0 1 0 -1 -0 -0 forward_v I I I I #
coedge $-1 -1 $-1 $133 $134 $135 $136 forward $73 $-1 #
edge $-1 -1 $-1 $137 -3.1415926535897931 $137 3.1415926535897931 $74 $138 forward @7 unknown #
face $-1 -1 $-1 $-1 $139 $4 $-1 $140 reversed single #
loop $-1 -1 $-1 $-1 $141 $75 #
plane-surface $-1 -1 $-1 -3.5300000000000002 2.8599999999999999 3.2000000000000002 0 0 1 1 0 0 forward_v I I I I #
face $-1 -1 $-1 $92 $142 $4 $-1 $143 forward single #
loop $-1 -1 $-1 $-1 $144 $77 #
plane-surface $-1 -1 $-1 -2.5 2.5 0.80000000000000027 -0 -0 -1 0 -1 0 forward_v I I I I #
loop $-1 -1 $-1 $-1 $145 $51 #
coedge $-1 -1 $-1 $146 $80 $147 $148 forward $52 $-1 #
coedge $-1 -1 $-1 $80 $146 $149 $150 reversed $52 $-1 #
coedge $-1 -1 $-1 $151 $152 $80 $114 forward $131 $-1 #
edge $-1 -1 $-1 $153 0.14999999999999991 $154 1.25 $113 $155 forward @7 unknown #
vertex $-1 -1 $-1 $83 $156 #
ellipse-curve $-1 -1 $-1 -3.1299999999999999 1.3999999999999999 1.9000000000000001 0 -1 0 -0.16500000000000004 0 0 1 I I #
vertex $-1 -1 $-1 $85 $157 #
ellipse-curve $-1 -1 $-1 -3.1299999999999999 4.3200000000000003 1.9000000000000001 -0 1 -0 -0.16500000000000004 0 0 1 I I #
loop $-1 -1 $-1 $-1 $158 $94 #
point $-1 -1 $-1 -2.9649999999999999 4.619999885559082 1.9000000000000001 #
point $-1 -1 $-1 -2.9649999999999999 2.7999999999999998 1.9000000000000001 #
coedge $-1 -1 $-1 $159 $160 $161 $162 reversed $91 $-1 #
face $-1 -1 $-1 $163 $164 $4 $-1 $165 forward single #
plane-surface $-1 -1 $-1 -4.2000000000000002 2.5 0 0 -1 0 1 -0 -0 forward_v I I I I #
face $-1 -1 $-1 $68 $166 $4 $-1 $167 forward single #
plane-surface $-1 -1 $-1 -2.5 4.6200000000000001 0 0 1 -0 -1 0 0 forward_v I I I I #
coedge $-1 -1 $-1 $168 $169 $170 $171 forward $96 $-1 #
loop $-1 -1 $-1 $-1 $172 $97 #
plane-surface $-1 -1 $-1 -3.9000000000000004 2.7999999999999998 0 1 0 0 0 1 0 forward_v I I I I #
coedge $-1 -1 $-1 $173 $174 $175 $176 reversed $99 $-1 #
loop $-1 -1 $-1 $177 $151 $100 #
plane-surface $-1 -1 $-1 -2.5 1.0999999999999999 0 1 0 -0 -0 1 -0 forward_v I I I I #
coedge $-1 -1 $-1 $178 $102 $179 $180 forward $73 $-1 #
coedge $-1 -1 $-1 $102 $178 $181 $182 reversed $73 $-1 #
coedge $-1 -1 $-1 $183 $184 $102 $136 reversed $139 $-1 #
edge $-1 -1 $-1 $185 0 $186 1.4000000000000004 $102 $187 forward @7 unknown #
vertex $-1 -1 $-1 $103 $188 #
ellipse-curve $-1 -1 $-1 -3.1299999999999999 1.0999999999999996 1.9000000000000001 -0 1 -0 -0.16500000000000004 0 0 1 I I #
loop $-1 -1 $-1 $-1 $183 $104 #
plane-surface $-1 -1 $-1 -3.5300000000000002 2.8599999999999999 0 0 0 1 1 0 0 forward_v I I I I #
coedge $-1 -1 $-1 $189 $190 $191 $192 forward $105 $-1 #
loop $-1 -1 $-1 $-1 $193 $107 #
plane-surface $-1 -1 $-1 -3.9000000000000004 2.5 0 -1 0 0 0 -1 0 forward_v I I I I #
coedge $-1 -1 $-1 $194 $195 $196 $197 reversed $108 $-1 #
coedge $-1 -1 $-1 $198 $147 $152 $199 reversed $110 $-1 #
coedge $-1 -1 $-1 $112 $111 $193 $200 reversed $52 $-1 #
coedge $-1 -1 $-1 $145 $201 $111 $148 reversed $110 $-1 #
edge $-1 -1 $-1 $153 0 $202 1.4000000000000004 $147 $203 forward @7 unknown #
coedge $-1 -1 $-1 $204 $205 $112 $150 forward $91 $-1 #
edge $-1 -1 $-1 $154 0 $206 1.4000000000000004 $112 $207 forward @7 unknown #
coedge $-1 -1 $-1 $196 $113 $205 $208 forward $131 $-1 #
coedge $-1 -1 $-1 $113 $196 $145 $199 forward $131 $-1 #
vertex $-1 -1 $-1 $114 $209 #
vertex $-1 -1 $-1 $208 $210 #
straight-curve $-1 -1 $-1 -2.5 1.25 3.0000000000000004 0 1 0 I I #
point $-1 -1 $-1 -2.9649999999999999 1.3999999999999999 1.9000000000000001 #
point $-1 -1 $-1 -2.9649999999999999 4.3200000000000003 1.9000000000000001 #
coedge $-1 -1 $-1 $211 $212 $213 $214 forward $119 $-1 #
coedge $-1 -1 $-1 $215 $122 $216 $217 forward $91 $-1 #
coedge $-1 -1 $-1 $122 $218 $219 $220 reversed $91 $-1 #
coedge $-1 -1 $-1 $221 $183 $122 $162 forward $139 $-1 #
edge $-1 -1 $-1 $222 1.4000000000000004 $223 1.7000000000000002 $122 $224 forward @7 unknown #
face $-1 -1 $-1 $225 $226 $4 $-1 $227 forward single #
loop $-1 -1 $-1 $-1 $228 $123 #
plane-surface $-1 -1 $-1 -4.2000000000000002 3.4199999999999999 0 -1 0 0 -0 -1 -0 forward_v I I I I #
loop $-1 -1 $-1 $-1 $229 $125 #
plane-surface $-1 -1 $-1 -2.5 4.3200000000000003 0 1 0 0 0 1 0 forward_v I I I I #
coedge $-1 -1 $-1 $230 $127 $231 $232 forward $96 $-1 #
coedge $-1 -1 $-1 $127 $230 $233 $234 reversed $96 $-1 #
coedge $-1 -1 $-1 $235 $236 $127 $171 reversed $139 $-1 #
edge $-1 -1 $-1 $237 0.29999999999999982 $238 1.7000000000000002 $127 $239 forward @7 unknown #
coedge $-1 -1 $-1 $233 $240 $235 $241 forward $128 $-1 #
coedge $-1 -1 $-1 $242 $130 $240 $243 forward $99 $-1 #
coedge $-1 -1 $-1 $130 $242 $244 $245 reversed $99 $-1 #
coedge $-1 -1 $-1 $184 $235 $130 $176 forward $139 $-1 #
edge $-1 -1 $-1 $246 0.29999999999999982 $247 1.7000000000000002 $130 $248 forward @7 unknown #
loop $-1 -1 $-1 $-1 $249 $100 #
coedge $-1 -1 $-1 $134 $133 $189 $250 reversed $73 $-1 #
coedge $-1 -1 $-1 $249 $251 $133 $180 reversed $177 $-1 #
edge $-1 -1 $-1 $186 0 $252 3.2000000000000002 $133 $253 forward @7 unknown #
coedge $-1 -1 $-1 $191 $254 $134 $182 forward $142 $-1 #
edge $-1 -1 $-1 $185 0 $255 3.2000000000000002 $181 $256 forward @7 unknown #
coedge $-1 -1 $-1 $161 $135 $254 $257 reversed $139 $-1 #
coedge $-1 -1 $-1 $135 $175 $249 $258 forward $139 $-1 #
vertex $-1 -1 $-1 $257 $259 #
vertex $-1 -1 $-1 $136 $260 #
straight-curve $-1 -1 $-1 -3.9000000000000004 1.0999999999999999 0 1 0 0 F 0 F 1.4000000000000004 #
point $-1 -1 $-1 -2.9649999999999999 1.0999998855590816 1.9000000000000001 #
coedge $-1 -1 $-1 $261 $141 $178 $250 forward $105 $-1 #
coedge $-1 -1 $-1 $141 $262 $218 $263 forward $105 $-1 #
coedge $-1 -1 $-1 $264 $181 $141 $192 reversed $142 $-1 #
edge $-1 -1 $-1 $265 0 $255 1.4000000000000001 $191 $266 forward @7 unknown #
coedge $-1 -1 $-1 $267 $264 $146 $200 forward $142 $-1 #
coedge $-1 -1 $-1 $268 $144 $215 $269 forward $108 $-1 #
coedge $-1 -1 $-1 $144 $268 $198 $270 reversed $108 $-1 #
coedge $-1 -1 $-1 $152 $151 $144 $197 forward $131 $-1 #
edge $-1 -1 $-1 $271 -0.70000000000000018 $272 0.39999999999999991 $196 $273 forward @7 unknown #
coedge $-1 -1 $-1 $201 $145 $195 $270 forward $110 $-1 #
edge $-1 -1 $-1 $272 0.40000000000000013 $153 2.6000000000000005 $152 $274 forward @7 unknown #
edge $-1 -1 $-1 $206 -0.55000000000000004 $202 0.55000000000000004 $193 $275 forward @7 unknown #
coedge $-1 -1 $-1 $147 $198 $267 $276 reversed $110 $-1 #
vertex $-1 -1 $-1 $200 $277 #
straight-curve $-1 -1 $-1 -2.5 1.3999999999999999 3.0000000000000004 -1 0 0 I I #
coedge $-1 -1 $-1 $218 $149 $264 $278 forward $91 $-1 #
coedge $-1 -1 $-1 $149 $215 $151 $208 reversed $91 $-1 #
vertex $-1 -1 $-1 $278 $279 #
straight-curve $-1 -1 $-1 -2.5 2.5 3.0000000000000004 -1 0 0 I I #
edge $-1 -1 $-1 $154 -1.5000000000000002 $271 0.69999999999999996 $151 $280 forward @7 unknown #
point $-1 -1 $-1 -2.5 1.3999999999999999 3.0000000000000004 #
point $-1 -1 $-1 -2.5 2.5 3.0000000000000004 #
coedge $-1 -1 $-1 $281 $158 $282 $283 forward $119 $-1 #
coedge $-1 -1 $-1 $158 $281 $284 $285 reversed $119 $-1 #
coedge $-1 -1 $-1 $236 $286 $158 $214 reversed $139 $-1 #
edge $-1 -1 $-1 $287 0 $288 1.7000000000000002 $158 $289 forward @7 unknown #
coedge $-1 -1 $-1 $205 $159 $194 $269 reversed $91 $-1 #
coedge $-1 -1 $-1 $254 $290 $159 $217 reversed $142 $-1 #
edge $-1 -1 $-1 $222 0 $291 0.80000000000000027 $216 $292 forward @7 unknown #
coedge $-1 -1 $-1 $160 $204 $190 $263 reversed $91 $-1 #
coedge $-1 -1 $-1 $293 $228 $160 $220 forward $164 $-1 #
edge $-1 -1 $-1 $223 0 $294 3.2000000000000002 $219 $295 forward @7 unknown #
coedge $-1 -1 $-1 $296 $161 $228 $297 forward $139 $-1 #
vertex $-1 -1 $-1 $257 $298 #
vertex $-1 -1 $-1 $297 $299 #
straight-curve $-1 -1 $-1 -2.5 2.5 0 -1 0 0 F 1.4000000000000004 F 1.7000000000000002 #
face $-1 -1 $-1 $300 $301 $4 $-1 $302 forward single #
loop $-1 -1 $-1 $-1 $303 $163 #
plane-surface $-1 -1 $-1 -4.3700000000000001 3.4199999999999999 0 0 -1 0 1 -0 -0 forward_v I I I I #
coedge $-1 -1 $-1 $219 $304 $221 $297 reversed $164 $-1 #
coedge $-1 -1 $-1 $284 $231 $236 $305 forward $166 $-1 #
coedge $-1 -1 $-1 $169 $168 $306 $307 reversed $96 $-1 #
coedge $-1 -1 $-1 $229 $308 $168 $232 reversed $166 $-1 #
edge $-1 -1 $-1 $238 0 $309 3.2000000000000002 $168 $310 forward @7 unknown #
coedge $-1 -1 $-1 $311 $172 $169 $234 forward $128 $-1 #
edge $-1 -1 $-1 $237 0 $312 3.2000000000000002 $233 $313 forward @7 unknown #
coedge $-1 -1 $-1 $175 $170 $172 $241 reversed $139 $-1 #
coedge $-1 -1 $-1 $170 $213 $229 $305 reversed $139 $-1 #
vertex $-1 -1 $-1 $241 $314 #
vertex $-1 -1 $-1 $171 $315 #
straight-curve $-1 -1 $-1 -4.2000000000000002 4.3200000000000003 0 1 0 0 F 0.29999999999999982 F 1.7000000000000002 #
coedge $-1 -1 $-1 $172 $311 $173 $243 reversed $128 $-1 #
edge $-1 -1 $-1 $246 -0.62000000000000011 $237 0.90000000000000036 $172 $316 forward @7 unknown #
coedge $-1 -1 $-1 $174 $173 $317 $318 reversed $99 $-1 #
edge $-1 -1 $-1 $246 0 $319 3.2000000000000002 $173 $320 forward @7 unknown #
coedge $-1 -1 $-1 $251 $249 $174 $245 forward $177 $-1 #
edge $-1 -1 $-1 $247 0 $321 3.2000000000000002 $244 $322 forward @7 unknown #
vertex $-1 -1 $-1 $176 $323 #
vertex $-1 -1 $-1 $258 $324 #
straight-curve $-1 -1 $-1 -4.2000000000000002 2.7999999999999998 0 1 0 0 F 0.29999999999999982 F 1.7000000000000002 #
coedge $-1 -1 $-1 $244 $179 $184 $258 reversed $177 $-1 #
edge $-1 -1 $-1 $255 0 $252 1.4000000000000004 $178 $325 forward @7 unknown #
coedge $-1 -1 $-1 $179 $244 $261 $326 reversed $177 $-1 #
vertex $-1 -1 $-1 $180 $327 #
straight-curve $-1 -1 $-1 -2.5 1.0999999999999999 0 0 0 1 I I #
coedge $-1 -1 $-1 $181 $216 $183 $257 forward $142 $-1 #
vertex $-1 -1 $-1 $182 $328 #
straight-curve $-1 -1 $-1 -3.9000000000000004 1.0999999999999999 0 0 0 1 I I #
edge $-1 -1 $-1 $222 0 $185 1.4000000000000001 $254 $329 forward @7 unknown #
edge $-1 -1 $-1 $247 0 $186 1.7 $249 $330 forward @7 unknown #
point $-1 -1 $-1 -3.9000000000000004 1.0999999999999999 0 #
point $-1 -1 $-1 -2.5 1.0999999999999999 0 #
coedge $-1 -1 $-1 $317 $189 $251 $326 forward $105 $-1 #
coedge $-1 -1 $-1 $190 $331 $293 $332 forward $105 $-1 #
edge $-1 -1 $-1 $294 -1.7000000000000002 $265 -1.4000000000000004 $218 $333 forward @7 unknown #
coedge $-1 -1 $-1 $193 $191 $204 $278 reversed $142 $-1 #
vertex $-1 -1 $-1 $278 $334 #
straight-curve $-1 -1 $-1 -3.9000000000000004 2.5 3.2000000000000002 0 -1 0 I I #
coedge $-1 -1 $-1 $290 $193 $201 $276 forward $142 $-1 #
coedge $-1 -1 $-1 $195 $194 $290 $335 reversed $108 $-1 #
edge $-1 -1 $-1 $271 0 $291 1.4000000000000004 $194 $336 forward @7 unknown #
edge $-1 -1 $-1 $272 0 $337 1.4000000000000004 $195 $338 forward @7 unknown #
vertex $-1 -1 $-1 $208 $339 #
vertex $-1 -1 $-1 $199 $340 #
straight-curve $-1 -1 $-1 -2.5 1.7999999999999998 0.80000000000000027 0 -1 0 I I #
straight-curve $-1 -1 $-1 -2.5 1.3999999999999999 0.40000000000000013 0 0 1 I I #
straight-curve $-1 -1 $-1 -3.9000000000000004 1.95 3.0000000000000004 -0 -1 0 I I #
edge $-1 -1 $-1 $202 -2.6000000000000005 $337 -0.40000000000000013 $267 $341 forward @7 unknown #
point $-1 -1 $-1 -3.9000000000000004 1.3999999999999999 3.0000000000000004 #
edge $-1 -1 $-1 $206 3.0000000000000004 $265 3.2000000000000002 $264 $292 forward @7 unknown #
point $-1 -1 $-1 -3.9000000000000004 2.5 3.0000000000000004 #
straight-curve $-1 -1 $-1 -2.5 2.5 1.5000000000000002 -0 0 -1 I I #
coedge $-1 -1 $-1 $212 $211 $342 $343 reversed $119 $-1 #
coedge $-1 -1 $-1 $344 $345 $211 $283 reversed $346 $-1 #
edge $-1 -1 $-1 $288 0 $347 3.2000000000000002 $211 $348 forward @7 unknown #
coedge $-1 -1 $-1 $308 $229 $212 $285 forward $166 $-1 #
edge $-1 -1 $-1 $287 0 $349 3.2000000000000002 $284 $350 forward @7 unknown #
coedge $-1 -1 $-1 $213 $351 $344 $352 forward $139 $-1 #
vertex $-1 -1 $-1 $305 $353 #
vertex $-1 -1 $-1 $214 $354 #
straight-curve $-1 -1 $-1 -2.5 4.6200000000000001 0 -1 0 0 F 0 F 1.7000000000000002 #
coedge $-1 -1 $-1 $216 $267 $268 $335 forward $142 $-1 #
vertex $-1 -1 $-1 $269 $355 #
straight-curve $-1 -1 $-1 -3.9000000000000004 2.5 0 0 0 1 I I #
coedge $-1 -1 $-1 $304 $219 $262 $332 reversed $164 $-1 #
vertex $-1 -1 $-1 $220 $356 #
straight-curve $-1 -1 $-1 -4.2000000000000002 2.5 0 0 0 1 I I #
coedge $-1 -1 $-1 $357 $221 $303 $358 forward $139 $-1 #
edge $-1 -1 $-1 $223 0 $359 0.91999999999999993 $228 $360 forward @7 unknown #
point $-1 -1 $-1 -3.9000000000000004 2.5 0 #
point $-1 -1 $-1 -4.2000000000000002 2.5 0 #
face $-1 -1 $-1 $361 $362 $4 $-1 $363 forward single #
loop $-1 -1 $-1 $-1 $364 $225 #
plane-surface $-1 -1 $-1 -4.3700000000000001 3.2949999999999999 0 1 0 0 0 1 0 forward_v I I I I #
coedge $-1 -1 $-1 $365 $366 $296 $358 reversed $226 $-1 #
coedge $-1 -1 $-1 $228 $293 $365 $367 reversed $164 $-1 #
edge $-1 -1 $-1 $238 0 $287 0.29999999999999982 $229 $368 forward @7 unknown #
coedge $-1 -1 $-1 $369 $370 $230 $307 forward $105 $-1 #
edge $-1 -1 $-1 $312 0.29999999999999982 $309 1.7000000000000002 $230 $371 forward @7 unknown #
coedge $-1 -1 $-1 $231 $284 $369 $372 reversed $166 $-1 #
vertex $-1 -1 $-1 $232 $373 #
straight-curve $-1 -1 $-1 -2.5 4.3200000000000003 0 0 0 1 I I #
coedge $-1 -1 $-1 $240 $233 $370 $374 reversed $128 $-1 #
vertex $-1 -1 $-1 $234 $375 #
straight-curve $-1 -1 $-1 -3.9000000000000004 4.3200000000000003 0 0 0 1 I I #
point $-1 -1 $-1 -3.9000000000000004 4.3200000000000003 0 #
point $-1 -1 $-1 -2.5 4.3200000000000003 0 #
straight-curve $-1 -1 $-1 -3.9000000000000004 3.4199999999999999 0 0 1 0 F -0.62000000000000011 F 0.90000000000000036 #
coedge $-1 -1 $-1 $370 $261 $242 $318 forward $105 $-1 #
edge $-1 -1 $-1 $321 -1.7000000000000002 $319 -0.29999999999999982 $242 $376 forward @7 unknown #
vertex $-1 -1 $-1 $243 $377 #
straight-curve $-1 -1 $-1 -3.9000000000000004 2.7999999999999998 0 0 0 1 I I #
vertex $-1 -1 $-1 $245 $378 #
straight-curve $-1 -1 $-1 -2.5 2.7999999999999998 0 0 0 1 I I #
point $-1 -1 $-1 -3.9000000000000004 2.7999999999999998 0 #
point $-1 -1 $-1 -2.5 2.7999999999999998 0 #
straight-curve $-1 -1 $-1 -3.9000000000000004 1.0999999999999999 3.2000000000000002 1 0 0 I I #
edge $-1 -1 $-1 $252 -1.7 $321 -0 $251 $379 forward @7 unknown #
point $-1 -1 $-1 -2.5 1.0999999999999999 3.2000000000000002 #
point $-1 -1 $-1 -3.9000000000000004 1.0999999999999999 3.2000000000000002 #
straight-curve $-1 -1 $-1 -3.9000000000000004 2.5 0 0 -1 0 F 0 F 1.4000000000000001 #
straight-curve $-1 -1 $-1 -2.5 2.7999999999999998 0 0 -1 0 F 0 F 1.7 #
coedge $-1 -1 $-1 $262 $380 $381 $382 forward $105 $-1 #
edge $-1 -1 $-1 $383 -0.91999999999999993 $294 -0 $293 $384 forward @7 unknown #
straight-curve $-1 -1 $-1 -2.5 2.5 3.2000000000000002 1 0 0 I I #
point $-1 -1 $-1 -3.9000000000000004 2.5 3.2000000000000002 #
edge $-1 -1 $-1 $337 -1.1000000000000001 $291 0 $290 $385 forward @7 unknown #
straight-curve $-1 -1 $-1 -2.5 2.5 0.80000000000000027 -1 0 0 I I #
vertex $-1 -1 $-1 $276 $386 #
straight-curve $-1 -1 $-1 -2.5 1.3999999999999999 0.80000000000000027 -1 0 0 I I #
point $-1 -1 $-1 -2.5 2.5 0.80000000000000027 #
point $-1 -1 $-1 -2.5 1.3999999999999999 0.80000000000000027 #
straight-curve $-1 -1 $-1 -3.9000000000000004 1.3999999999999999 0.40000000000000013 -0 -0 -1 I I #
coedge $-1 -1 $-1 $387 $369 $281 $343 forward $105 $-1 #
edge $-1 -1 $-1 $349 0 $347 1.7000000000000002 $281 $388 forward @7 unknown #
coedge $-1 -1 $-1 $389 $282 $286 $352 reversed $346 $-1 #
coedge $-1 -1 $-1 $282 $389 $387 $390 reversed $346 $-1 #
loop $-1 -1 $-1 $-1 $344 $391 #
vertex $-1 -1 $-1 $283 $392 #
straight-curve $-1 -1 $-1 -4.2000000000000002 4.6200000000000001 0 0 0 1 I I #
vertex $-1 -1 $-1 $285 $393 #
straight-curve $-1 -1 $-1 -2.5 4.6200000000000001 0 0 0 1 I I #
coedge $-1 -1 $-1 $286 $394 $395 $396 forward $139 $-1 #
edge $-1 -1 $-1 $397 1.1999999999999997 $288 2.1200000000000001 $344 $360 forward @7 unknown #
point $-1 -1 $-1 -2.5 4.6200000000000001 0 #
point $-1 -1 $-1 -4.2000000000000002 4.6200000000000001 0 #
point $-1 -1 $-1 -3.9000000000000004 2.5 0.80000000000000027 #
point $-1 -1 $-1 -4.2000000000000002 2.5 3.2000000000000002 #
coedge $-1 -1 $-1 $398 $296 $364 $399 reversed $139 $-1 #
edge $-1 -1 $-1 $359 0 $400 0.16999999999999993 $303 $401 forward @7 unknown #
vertex $-1 -1 $-1 $358 $402 #
straight-curve $-1 -1 $-1 -4.2000000000000002 2.5 0 0 1 0 F 0 F 2.1200000000000001 #
face $-1 -1 $-1 $403 $404 $4 $-1 $405 forward single #
loop $-1 -1 $-1 $-1 $406 $300 #
plane-surface $-1 -1 $-1 -4.5600000000000005 3.2949999999999999 0 0 -1 0 1 0 0 forward_v I I I I #
coedge $-1 -1 $-1 $407 $408 $357 $399 forward $301 $-1 #
coedge $-1 -1 $-1 $381 $303 $304 $367 forward $226 $-1 #
coedge $-1 -1 $-1 $303 $381 $407 $409 reversed $226 $-1 #
edge $-1 -1 $-1 $359 0 $383 3.2000000000000002 $365 $410 forward @7 unknown #
straight-curve $-1 -1 $-1 -2.5 4.3200000000000003 0 0 1 0 F 0 F 0.29999999999999982 #
coedge $-1 -1 $-1 $342 $306 $308 $372 forward $105 $-1 #
coedge $-1 -1 $-1 $306 $317 $311 $374 forward $105 $-1 #
straight-curve $-1 -1 $-1 -4.2000000000000002 4.3200000000000003 3.2000000000000002 1 0 0 I I #
edge $-1 -1 $-1 $309 0 $349 0.29999999999999982 $308 $411 forward @7 unknown #
point $-1 -1 $-1 -2.5 4.3200000000000003 3.2000000000000002 #
edge $-1 -1 $-1 $319 -0.62000000000000011 $312 0.90000000000000036 $311 $412 forward @7 unknown #
point $-1 -1 $-1 -3.9000000000000004 4.3200000000000003 3.2000000000000002 #
straight-curve $-1 -1 $-1 -4.2000000000000002 2.7999999999999998 3.2000000000000002 -1 -0 -0 I I #
point $-1 -1 $-1 -3.9000000000000004 2.7999999999999998 3.2000000000000002 #
point $-1 -1 $-1 -2.5 2.7999999999999998 3.2000000000000002 #
straight-curve $-1 -1 $-1 -2.5 2.7999999999999998 3.2000000000000002 0 1 0 I I #
coedge $-1 -1 $-1 $331 $413 $414 $415 forward $105 $-1 #
coedge $-1 -1 $-1 $366 $365 $331 $382 reversed $226 $-1 #
edge $-1 -1 $-1 $416 -0.16999999999999993 $383 -0 $381 $417 forward @7 unknown #
vertex $-1 -1 $-1 $367 $418 #
straight-curve $-1 -1 $-1 -4.2000000000000002 2.5 3.2000000000000002 -0 -1 -0 I I #
straight-curve $-1 -1 $-1 -3.9000000000000004 2.5 0.80000000000000027 0 1 -0 I I #
point $-1 -1 $-1 -3.9000000000000004 1.3999999999999999 0.80000000000000027 #
coedge $-1 -1 $-1 $419 $342 $345 $390 forward $105 $-1 #
straight-curve $-1 -1 $-1 -2.5 4.6200000000000001 3.2000000000000002 -1 0 0 I I #
coedge $-1 -1 $-1 $345 $344 $420 $421 forward $346 $-1 #
edge $-1 -1 $-1 $347 -2.1200000000000001 $422 -1.1999999999999997 $345 $423 forward @7 unknown #
face $-1 -1 $-1 $94 $346 $4 $-1 $424 forward single #
point $-1 -1 $-1 -4.2000000000000002 4.6200000000000001 3.2000000000000002 #
point $-1 -1 $-1 -2.5 4.6200000000000001 3.2000000000000002 #
coedge $-1 -1 $-1 $351 $425 $426 $427 reversed $139 $-1 #
coedge $-1 -1 $-1 $428 $420 $351 $396 reversed $429 $-1 #
edge $-1 -1 $-1 $430 0 $397 0.16999999999999993 $395 $431 forward @7 unknown #
vertex $-1 -1 $-1 $352 $432 #
coedge $-1 -1 $-1 $433 $357 $406 $434 reversed $139 $-1 #
edge $-1 -1 $-1 $435 0 $400 0.125 $364 $436 forward @7 unknown #
vertex $-1 -1 $-1 $399 $437 #
straight-curve $-1 -1 $-1 -4.2000000000000002 3.4199999999999999 0 -1 0 0 F 0 F 0.36000000000000032 #
point $-1 -1 $-1 -4.2000000000000002 3.4199999999999999 0 #
face $-1 -1 $-1 $438 $439 $4 $-1 $440 forward single #
loop $-1 -1 $-1 $-1 $441 $361 #
plane-surface $-1 -1 $-1 -4.5600000000000005 3.8249999999999997 0 -1 0 0 0 -1 0 forward_v I I I I #
coedge $-1 -1 $-1 $442 $443 $398 $434 forward $362 $-1 #
coedge $-1 -1 $-1 $414 $364 $366 $409 forward $301 $-1 #
coedge $-1 -1 $-1 $364 $414 $442 $444 reversed $301 $-1 #
edge $-1 -1 $-1 $400 0 $416 3.2000000000000002 $407 $445 forward @7 unknown #
straight-curve $-1 -1 $-1 -4.2000000000000002 3.4199999999999999 0 0 0 1 I I #
straight-curve $-1 -1 $-1 -2.5 4.3200000000000003 3.2000000000000002 0 1 0 I I #
straight-curve $-1 -1 $-1 -3.9000000000000004 3.4199999999999999 3.2000000000000002 0 1 0 I I #
coedge $-1 -1 $-1 $380 $446 $447 $448 forward $105 $-1 #
coedge $-1 -1 $-1 $408 $407 $380 $415 reversed $301 $-1 #
edge $-1 -1 $-1 $449 0 $416 0.125 $414 $450 forward @7 unknown #
vertex $-1 -1 $-1 $409 $451 #
straight-curve $-1 -1 $-1 -4.2000000000000002 3.4199999999999999 3.2000000000000002 1 0 0 I I #
point $-1 -1 $-1 -4.2000000000000002 3.4199999999999999 3.2000000000000002 #
coedge $-1 -1 $-1 $452 $387 $453 $454 forward $105 $-1 #
coedge $-1 -1 $-1 $395 $453 $389 $421 reversed $429 $-1 #
edge $-1 -1 $-1 $397 0 $422 3.2000000000000002 $389 $455 forward @7 unknown #
vertex $-1 -1 $-1 $421 $456 #
straight-curve $-1 -1 $-1 -4.2000000000000002 2.5 3.2000000000000002 -0 -1 -0 I I #
plane-surface $-1 -1 $-1 -4.2000000000000002 4.6200000000000001 0 -1 0 0 -0 -1 -0 forward_v I I I I #
coedge $-1 -1 $-1 $394 $433 $457 $458 reversed $139 $-1 #
coedge $-1 -1 $-1 $459 $460 $394 $427 forward $461 $-1 #
edge $-1 -1 $-1 $430 0 $462 0.125 $426 $463 forward @7 unknown #
coedge $-1 -1 $-1 $453 $395 $460 $464 forward $429 $-1 #
loop $-1 -1 $-1 $-1 $395 $465 #
vertex $-1 -1 $-1 $396 $466 #
straight-curve $-1 -1 $-1 -4.3700000000000001 3.6999999999999997 0 1 0 0 F 0 F 0.16999999999999993 #
point $-1 -1 $-1 -4.2000000000000002 3.6999999999999997 0 #
coedge $-1 -1 $-1 $425 $398 $441 $467 reversed $139 $-1 #
edge $-1 -1 $-1 $468 0 $435 0.19000000000000039 $406 $469 forward @7 unknown #
vertex $-1 -1 $-1 $434 $470 #
straight-curve $-1 -1 $-1 -4.3700000000000001 3.2949999999999999 0 0 1 0 F 0 F 0.125 #
point $-1 -1 $-1 -4.3700000000000001 3.4199999999999999 0 #
face $-1 -1 $-1 $465 $461 $4 $-1 $471 forward single #
loop $-1 -1 $-1 $-1 $457 $403 #
plane-surface $-1 -1 $-1 -4.3700000000000001 3.8249999999999997 0 0 1 -0 -1 0 0 forward_v I I I I #
coedge $-1 -1 $-1 $472 $473 $433 $467 forward $404 $-1 #
coedge $-1 -1 $-1 $447 $406 $408 $444 forward $362 $-1 #
coedge $-1 -1 $-1 $406 $447 $472 $474 reversed $362 $-1 #
edge $-1 -1 $-1 $435 0 $449 3.2000000000000002 $442 $475 forward @7 unknown #
straight-curve $-1 -1 $-1 -4.3700000000000001 3.4199999999999999 0 0 0 1 I I #
coedge $-1 -1 $-1 $413 $476 $477 $478 forward $105 $-1 #
coedge $-1 -1 $-1 $443 $442 $413 $448 reversed $362 $-1 #
edge $-1 -1 $-1 $479 0 $449 0.19000000000000039 $447 $480 forward @7 unknown #
vertex $-1 -1 $-1 $444 $481 #
straight-curve $-1 -1 $-1 -4.3700000000000001 3.2949999999999999 3.2000000000000002 0 1 0 I I #
point $-1 -1 $-1 -4.3700000000000001 3.4199999999999999 3.2000000000000002 #
coedge $-1 -1 $-1 $476 $419 $482 $483 forward $105 $-1 #
coedge $-1 -1 $-1 $420 $428 $419 $454 reversed $429 $-1 #
edge $-1 -1 $-1 $422 -0.16999999999999993 $484 -0 $453 $485 forward @7 unknown #
straight-curve $-1 -1 $-1 -4.2000000000000002 3.6999999999999997 0 0 0 1 I I #
point $-1 -1 $-1 -4.2000000000000002 3.6999999999999997 3.2000000000000002 #
coedge $-1 -1 $-1 $486 $487 $425 $458 forward $439 $-1 #
edge $-1 -1 $-1 $462 0 $488 0.19000000000000039 $457 $489 forward @7 unknown #
coedge $-1 -1 $-1 $482 $426 $487 $490 forward $461 $-1 #
coedge $-1 -1 $-1 $426 $482 $428 $464 reversed $461 $-1 #
loop $-1 -1 $-1 $-1 $426 $438 #
vertex $-1 -1 $-1 $427 $491 #
straight-curve $-1 -1 $-1 -4.3700000000000001 3.6999999999999997 0 0 1 0 F 0 F 0.125 #
edge $-1 -1 $-1 $430 0 $484 3.2000000000000002 $428 $492 forward @7 unknown #
face $-1 -1 $-1 $391 $429 $4 $-1 $493 forward single #
point $-1 -1 $-1 -4.3700000000000001 3.6999999999999997 0 #
edge $-1 -1 $-1 $488 -0.4049999999999998 $468 0.125 $441 $494 forward @7 unknown #
vertex $-1 -1 $-1 $467 $495 #
straight-curve $-1 -1 $-1 -4.5600000000000005 3.2949999999999999 0 1 0 0 F 0 F 0.19000000000000039 #
point $-1 -1 $-1 -4.3700000000000001 3.2949999999999999 0 #
plane-surface $-1 -1 $-1 -4.3700000000000001 3.6999999999999997 0 1 0 0 0 1 0 forward_v I I I I #
coedge $-1 -1 $-1 $477 $441 $443 $474 forward $404 $-1 #
coedge $-1 -1 $-1 $441 $477 $486 $496 reversed $404 $-1 #
edge $-1 -1 $-1 $468 0 $479 3.2000000000000002 $472 $497 forward @7 unknown #
straight-curve $-1 -1 $-1 -4.3700000000000001 3.2949999999999999 0 0 0 1 I I #
coedge $-1 -1 $-1 $446 $452 $498 $499 forward $105 $-1 #
coedge $-1 -1 $-1 $473 $472 $446 $478 reversed $404 $-1 #
edge $-1 -1 $-1 $500 -0.4049999999999998 $479 0.125 $477 $501 forward @7 unknown #
vertex $-1 -1 $-1 $474 $502 #
straight-curve $-1 -1 $-1 -4.5600000000000005 3.2949999999999999 3.2000000000000002 1 0 0 I I #
point $-1 -1 $-1 -4.3700000000000001 3.2949999999999999 3.2000000000000002 #
coedge $-1 -1 $-1 $460 $459 $452 $483 reversed $461 $-1 #
edge $-1 -1 $-1 $484 0 $503 0.125 $482 $504 forward @7 unknown #
vertex $-1 -1 $-1 $464 $505 #
straight-curve $-1 -1 $-1 -4.3700000000000001 3.6999999999999997 3.2000000000000002 -1 -0 -0 I I #
coedge $-1 -1 $-1 $498 $457 $473 $496 forward $439 $-1 #
coedge $-1 -1 $-1 $457 $498 $459 $490 reversed $439 $-1 #
vertex $-1 -1 $-1 $458 $506 #
straight-curve $-1 -1 $-1 -4.3700000000000001 3.8249999999999997 0 -1 0 0 F 0 F 0.19000000000000039 #
edge $-1 -1 $-1 $462 0 $503 3.2000000000000002 $459 $507 forward @7 unknown #
point $-1 -1 $-1 -4.3700000000000001 3.8249999999999997 0 #
straight-curve $-1 -1 $-1 -4.3700000000000001 3.6999999999999997 0 0 0 1 I I #
plane-surface $-1 -1 $-1 -4.2000000000000002 3.6999999999999997 0 0 1 0 -1 -0 -0 forward_v I I I I #
straight-curve $-1 -1 $-1 -4.5600000000000005 3.4199999999999999 0 0 -1 0 F -0.4049999999999998 F 0.125 #
point $-1 -1 $-1 -4.5600000000000005 3.2949999999999999 0 #
edge $-1 -1 $-1 $488 0 $500 3.2000000000000002 $486 $508 forward @7 unknown #
straight-curve $-1 -1 $-1 -4.5600000000000005 3.2949999999999999 0 0 0 1 I I #
coedge $-1 -1 $-1 $487 $486 $476 $499 reversed $439 $-1 #
edge $-1 -1 $-1 $503 0 $500 0.19000000000000039 $498 $509 forward @7 unknown #
vertex $-1 -1 $-1 $496 $510 #
straight-curve $-1 -1 $-1 -4.5600000000000005 3.4199999999999999 3.2000000000000002 0 -1 0 I I #
point $-1 -1 $-1 -4.5600000000000005 3.2949999999999999 3.2000000000000002 #
vertex $-1 -1 $-1 $490 $511 #
straight-curve $-1 -1 $-1 -4.3700000000000001 3.6999999999999997 3.2000000000000002 0 1 0 I I #
point $-1 -1 $-1 -4.3700000000000001 3.6999999999999997 3.2000000000000002 #
point $-1 -1 $-1 -4.5600000000000005 3.8249999999999997 0 #
straight-curve $-1 -1 $-1 -4.3700000000000001 3.8249999999999997 0 0 0 1 I I #
straight-curve $-1 -1 $-1 -4.5600000000000005 3.8249999999999997 0 0 0 1 I I #
straight-curve $-1 -1 $-1 -4.3700000000000001 3.8249999999999997 3.2000000000000002 -1 0 0 I I #
point $-1 -1 $-1 -4.5600000000000005 3.8249999999999997 3.2000000000000002 #
point $-1 -1 $-1 -4.3700000000000001 3.8249999999999997 3.2000000000000002 #
End-of-ACIS-data 